<mxfile host="Electron" agent="Mozilla/5.0 (Macintosh; Intel Mac OS X 10_15_7) AppleWebKit/537.36 (KHTML, like Gecko) draw.io/26.2.15 Chrome/134.0.6998.205 Electron/35.2.1 Safari/537.36" version="26.2.15">
  <diagram name="Page-1" id="o56g5Fyr8evUAqT_ZzkA">
    <mxGraphModel dx="1234" dy="917" grid="1" gridSize="10" guides="1" tooltips="1" connect="1" arrows="1" fold="1" page="1" pageScale="1" pageWidth="1169" pageHeight="827" math="0" shadow="0">
      <root>
        <mxCell id="0" />
        <mxCell id="1" parent="0" />
        <mxCell id="plOoAYpIa059WLNFDd3Z-107" value="" style="group;" parent="1" vertex="1" connectable="0">
          <mxGeometry x="90" y="220" width="670" height="140.43" as="geometry" />
        </mxCell>
        <mxCell id="plOoAYpIa059WLNFDd3Z-2" value="`" style="group;fillColor=#60a917;strokeColor=#2D7600;fontColor=#ffffff;container=0;" parent="plOoAYpIa059WLNFDd3Z-107" vertex="1" connectable="0">
          <mxGeometry x="45.27027027027029" y="0.4300000000000068" width="72.43243243243244" height="69.56521739130434" as="geometry" />
        </mxCell>
        <mxCell id="plOoAYpIa059WLNFDd3Z-8" value="" style="group;fillColor=#60a917;strokeColor=#2D7600;fontColor=#ffffff;container=0;" parent="plOoAYpIa059WLNFDd3Z-107" vertex="1" connectable="0">
          <mxGeometry x="117.70270270270274" y="0.4300000000000068" width="72.43243243243244" height="69.56521739130434" as="geometry" />
        </mxCell>
        <mxCell id="plOoAYpIa059WLNFDd3Z-13" value="" style="group;fillColor=#60a917;strokeColor=#2D7600;fontColor=#ffffff;container=0;" parent="plOoAYpIa059WLNFDd3Z-107" vertex="1" connectable="0">
          <mxGeometry x="190.13513513513516" y="0.4300000000000068" width="72.43243243243244" height="69.56521739130434" as="geometry" />
        </mxCell>
        <mxCell id="plOoAYpIa059WLNFDd3Z-18" value="" style="group;fillColor=#60a917;strokeColor=#2D7600;fontColor=#ffffff;container=0;" parent="plOoAYpIa059WLNFDd3Z-107" vertex="1" connectable="0">
          <mxGeometry x="262.5675675675676" y="0.4300000000000068" width="72.43243243243244" height="69.56521739130434" as="geometry" />
        </mxCell>
        <mxCell id="plOoAYpIa059WLNFDd3Z-23" value="" style="group;fillColor=#60a917;strokeColor=#2D7600;fontColor=#ffffff;container=0;" parent="plOoAYpIa059WLNFDd3Z-107" vertex="1" connectable="0">
          <mxGeometry x="335.00000000000006" y="0.4300000000000068" width="81.4864864864865" height="69.56521739130434" as="geometry" />
        </mxCell>
        <mxCell id="plOoAYpIa059WLNFDd3Z-28" value="" style="group;fillColor=#60a917;strokeColor=#2D7600;fontColor=#ffffff;container=0;" parent="plOoAYpIa059WLNFDd3Z-107" vertex="1" connectable="0">
          <mxGeometry x="407.43243243243245" y="0.4300000000000068" width="72.43243243243244" height="69.56521739130434" as="geometry" />
        </mxCell>
        <mxCell id="plOoAYpIa059WLNFDd3Z-33" value="" style="group;fillColor=#60a917;strokeColor=#2D7600;fontColor=#ffffff;container=0;" parent="plOoAYpIa059WLNFDd3Z-107" vertex="1" connectable="0">
          <mxGeometry x="479.864864864865" y="0.4300000000000068" width="72.43243243243244" height="69.56521739130434" as="geometry" />
        </mxCell>
        <mxCell id="plOoAYpIa059WLNFDd3Z-38" value="" style="group;fillColor=#60a917;strokeColor=#2D7600;fontColor=#ffffff;container=0;" parent="plOoAYpIa059WLNFDd3Z-107" vertex="1" connectable="0">
          <mxGeometry x="552.2972972972974" y="0.4300000000000068" width="72.43243243243244" height="69.56521739130434" as="geometry" />
        </mxCell>
        <mxCell id="plOoAYpIa059WLNFDd3Z-43" value="0x000000000000" style="text;html=1;align=center;verticalAlign=middle;whiteSpace=wrap;rounded=0;container=0;" parent="plOoAYpIa059WLNFDd3Z-107" vertex="1">
          <mxGeometry y="78.69086956521738" width="90.54054054054058" height="26.08695652173913" as="geometry" />
        </mxCell>
        <mxCell id="plOoAYpIa059WLNFDd3Z-44" value="0xFFFFFFFFFFFF" style="text;html=1;align=center;verticalAlign=middle;whiteSpace=wrap;rounded=0;container=0;" parent="plOoAYpIa059WLNFDd3Z-107" vertex="1">
          <mxGeometry x="579.4594594594595" y="78.69086956521738" width="90.54054054054058" height="26.08695652173913" as="geometry" />
        </mxCell>
        <mxCell id="plOoAYpIa059WLNFDd3Z-50" style="edgeStyle=orthogonalEdgeStyle;rounded=0;orthogonalLoop=1;jettySize=auto;html=1;exitX=0.75;exitY=1;exitDx=0;exitDy=0;entryX=0.5;entryY=0;entryDx=0;entryDy=0;endArrow=none;startFill=0;" parent="plOoAYpIa059WLNFDd3Z-107" source="plOoAYpIa059WLNFDd3Z-42" target="plOoAYpIa059WLNFDd3Z-44" edge="1">
          <mxGeometry relative="1" as="geometry" />
        </mxCell>
        <mxCell id="plOoAYpIa059WLNFDd3Z-3" style="edgeStyle=orthogonalEdgeStyle;rounded=0;orthogonalLoop=1;jettySize=auto;html=1;exitX=0;exitY=1;exitDx=0;exitDy=0;strokeColor=default;endArrow=none;startFill=0;" parent="plOoAYpIa059WLNFDd3Z-107" source="plOoAYpIa059WLNFDd3Z-4" edge="1">
          <mxGeometry relative="1" as="geometry">
            <mxPoint x="45.27027027027029" y="78.69086956521738" as="targetPoint" />
          </mxGeometry>
        </mxCell>
        <mxCell id="plOoAYpIa059WLNFDd3Z-4" value="" style="rounded=0;whiteSpace=wrap;html=1;fillColor=#60a917;strokeColor=#2D7600;fontColor=#ffffff;container=0;" parent="plOoAYpIa059WLNFDd3Z-107" vertex="1">
          <mxGeometry x="45.27027027027029" y="0.4300000000000068" width="18.10810810810811" height="69.56521739130434" as="geometry" />
        </mxCell>
        <mxCell id="plOoAYpIa059WLNFDd3Z-5" value="" style="rounded=0;whiteSpace=wrap;html=1;fillColor=#60a917;strokeColor=#2D7600;fontColor=#ffffff;container=0;" parent="plOoAYpIa059WLNFDd3Z-107" vertex="1">
          <mxGeometry x="63.378378378378414" y="0.4300000000000068" width="18.10810810810811" height="69.56521739130434" as="geometry" />
        </mxCell>
        <mxCell id="plOoAYpIa059WLNFDd3Z-6" value="" style="rounded=0;whiteSpace=wrap;html=1;fillColor=#60a917;strokeColor=#2D7600;fontColor=#ffffff;container=0;" parent="plOoAYpIa059WLNFDd3Z-107" vertex="1">
          <mxGeometry x="81.48648648648651" y="0.4300000000000068" width="18.10810810810811" height="69.56521739130434" as="geometry" />
        </mxCell>
        <mxCell id="plOoAYpIa059WLNFDd3Z-7" value="" style="rounded=0;whiteSpace=wrap;html=1;fillColor=#60a917;strokeColor=#2D7600;fontColor=#ffffff;container=0;" parent="plOoAYpIa059WLNFDd3Z-107" vertex="1">
          <mxGeometry x="99.59459459459461" y="0.4300000000000068" width="18.10810810810811" height="69.56521739130434" as="geometry" />
        </mxCell>
        <mxCell id="plOoAYpIa059WLNFDd3Z-9" value="" style="rounded=0;whiteSpace=wrap;html=1;fillColor=#60a917;strokeColor=#2D7600;fontColor=#ffffff;container=0;" parent="plOoAYpIa059WLNFDd3Z-107" vertex="1">
          <mxGeometry x="117.70270270270274" y="0.4300000000000068" width="18.10810810810811" height="69.56521739130434" as="geometry" />
        </mxCell>
        <mxCell id="plOoAYpIa059WLNFDd3Z-10" value="" style="rounded=0;whiteSpace=wrap;html=1;fillColor=#60a917;strokeColor=#2D7600;fontColor=#ffffff;container=0;" parent="plOoAYpIa059WLNFDd3Z-107" vertex="1">
          <mxGeometry x="135.81081081081084" y="0.4300000000000068" width="18.10810810810811" height="69.56521739130434" as="geometry" />
        </mxCell>
        <mxCell id="plOoAYpIa059WLNFDd3Z-11" value="" style="rounded=0;whiteSpace=wrap;html=1;fillColor=#dae8fc;strokeColor=#6c8ebf;container=0;perimeterSpacing=5;" parent="plOoAYpIa059WLNFDd3Z-107" vertex="1">
          <mxGeometry x="153.91891891891893" y="0.4300000000000068" width="18.10810810810811" height="69.56521739130434" as="geometry" />
        </mxCell>
        <mxCell id="plOoAYpIa059WLNFDd3Z-12" value="" style="rounded=0;whiteSpace=wrap;html=1;fillColor=#dae8fc;strokeColor=#6c8ebf;container=0;perimeterSpacing=5;" parent="plOoAYpIa059WLNFDd3Z-107" vertex="1">
          <mxGeometry x="172.0270270270271" y="0.4300000000000068" width="18.10810810810811" height="69.56521739130434" as="geometry" />
        </mxCell>
        <mxCell id="plOoAYpIa059WLNFDd3Z-14" value="" style="rounded=0;whiteSpace=wrap;html=1;fillColor=#dae8fc;strokeColor=#6c8ebf;container=0;perimeterSpacing=5;" parent="plOoAYpIa059WLNFDd3Z-107" vertex="1">
          <mxGeometry x="190.13513513513516" y="0.4300000000000068" width="18.10810810810811" height="69.56521739130434" as="geometry" />
        </mxCell>
        <mxCell id="plOoAYpIa059WLNFDd3Z-15" value="" style="rounded=0;whiteSpace=wrap;html=1;fillColor=#dae8fc;strokeColor=#6c8ebf;container=0;perimeterSpacing=5;" parent="plOoAYpIa059WLNFDd3Z-107" vertex="1">
          <mxGeometry x="208.24324324324323" y="0.4300000000000068" width="18.10810810810811" height="69.56521739130434" as="geometry" />
        </mxCell>
        <mxCell id="plOoAYpIa059WLNFDd3Z-16" value="" style="rounded=0;whiteSpace=wrap;html=1;fillColor=#dae8fc;strokeColor=#6c8ebf;container=0;perimeterSpacing=5;" parent="plOoAYpIa059WLNFDd3Z-107" vertex="1">
          <mxGeometry x="226.3513513513514" y="0.4300000000000068" width="18.10810810810811" height="69.56521739130434" as="geometry" />
        </mxCell>
        <mxCell id="plOoAYpIa059WLNFDd3Z-17" value="" style="rounded=0;whiteSpace=wrap;html=1;fillColor=#60a917;strokeColor=#2D7600;fontColor=#ffffff;container=0;" parent="plOoAYpIa059WLNFDd3Z-107" vertex="1">
          <mxGeometry x="244.45945945945948" y="0.4300000000000068" width="18.10810810810811" height="69.56521739130434" as="geometry" />
        </mxCell>
        <mxCell id="plOoAYpIa059WLNFDd3Z-19" value="" style="rounded=0;whiteSpace=wrap;html=1;fillColor=#60a917;strokeColor=#2D7600;fontColor=#ffffff;container=0;" parent="plOoAYpIa059WLNFDd3Z-107" vertex="1">
          <mxGeometry x="262.5675675675676" y="0.4300000000000068" width="18.10810810810811" height="69.56521739130434" as="geometry" />
        </mxCell>
        <mxCell id="plOoAYpIa059WLNFDd3Z-20" value="" style="rounded=0;whiteSpace=wrap;html=1;fillColor=#60a917;strokeColor=#2D7600;fontColor=#ffffff;container=0;" parent="plOoAYpIa059WLNFDd3Z-107" vertex="1">
          <mxGeometry x="280.67567567567573" y="0.4300000000000068" width="18.10810810810811" height="69.56521739130434" as="geometry" />
        </mxCell>
        <mxCell id="plOoAYpIa059WLNFDd3Z-21" value="" style="rounded=0;whiteSpace=wrap;html=1;fillColor=#f8cecc;strokeColor=#b85450;container=0;" parent="plOoAYpIa059WLNFDd3Z-107" vertex="1">
          <mxGeometry x="298.7837837837839" y="0.4300000000000068" width="18.10810810810811" height="69.56521739130434" as="geometry" />
        </mxCell>
        <mxCell id="plOoAYpIa059WLNFDd3Z-22" value="" style="rounded=0;whiteSpace=wrap;html=1;fillColor=#f8cecc;strokeColor=#b85450;container=0;" parent="plOoAYpIa059WLNFDd3Z-107" vertex="1">
          <mxGeometry x="316.8918918918919" y="0.4300000000000068" width="18.10810810810811" height="69.56521739130434" as="geometry" />
        </mxCell>
        <mxCell id="plOoAYpIa059WLNFDd3Z-24" value="" style="rounded=0;whiteSpace=wrap;html=1;fillColor=#d0cee2;strokeColor=#56517e;container=0;" parent="plOoAYpIa059WLNFDd3Z-107" vertex="1">
          <mxGeometry x="335.00000000000006" y="0.4300000000000068" width="18.10810810810811" height="69.56521739130434" as="geometry" />
        </mxCell>
        <mxCell id="plOoAYpIa059WLNFDd3Z-25" value="" style="rounded=0;whiteSpace=wrap;html=1;fillColor=#d0cee2;strokeColor=#56517e;container=0;" parent="plOoAYpIa059WLNFDd3Z-107" vertex="1">
          <mxGeometry x="353.1081081081081" y="0.4300000000000068" width="18.10810810810811" height="69.56521739130434" as="geometry" />
        </mxCell>
        <mxCell id="plOoAYpIa059WLNFDd3Z-26" value="" style="rounded=0;whiteSpace=wrap;html=1;fillColor=#d0cee2;strokeColor=#56517e;container=0;" parent="plOoAYpIa059WLNFDd3Z-107" vertex="1">
          <mxGeometry x="371.2162162162163" y="0.4300000000000068" width="18.10810810810811" height="69.56521739130434" as="geometry" />
        </mxCell>
        <mxCell id="plOoAYpIa059WLNFDd3Z-27" value="" style="rounded=0;whiteSpace=wrap;html=1;fillColor=#d0cee2;strokeColor=#56517e;container=0;" parent="plOoAYpIa059WLNFDd3Z-107" vertex="1">
          <mxGeometry x="389.32432432432444" y="0.4300000000000068" width="18.10810810810811" height="69.56521739130434" as="geometry" />
        </mxCell>
        <mxCell id="plOoAYpIa059WLNFDd3Z-29" value="" style="rounded=0;whiteSpace=wrap;html=1;fillColor=#60a917;strokeColor=#2D7600;fontColor=#ffffff;container=0;" parent="plOoAYpIa059WLNFDd3Z-107" vertex="1">
          <mxGeometry x="407.43243243243245" y="0.4300000000000068" width="18.10810810810811" height="69.56521739130434" as="geometry" />
        </mxCell>
        <mxCell id="plOoAYpIa059WLNFDd3Z-30" value="" style="rounded=0;whiteSpace=wrap;html=1;fillColor=#60a917;strokeColor=#2D7600;fontColor=#ffffff;container=0;" parent="plOoAYpIa059WLNFDd3Z-107" vertex="1">
          <mxGeometry x="425.5405405405405" y="0.4300000000000068" width="18.10810810810811" height="69.56521739130434" as="geometry" />
        </mxCell>
        <mxCell id="plOoAYpIa059WLNFDd3Z-31" value="" style="rounded=0;whiteSpace=wrap;html=1;fillColor=#ffe6cc;strokeColor=#d79b00;container=0;" parent="plOoAYpIa059WLNFDd3Z-107" vertex="1">
          <mxGeometry x="443.64864864864865" y="0.4300000000000068" width="18.10810810810811" height="69.56521739130434" as="geometry" />
        </mxCell>
        <mxCell id="plOoAYpIa059WLNFDd3Z-32" value="" style="rounded=0;whiteSpace=wrap;html=1;fillColor=#ffe6cc;strokeColor=#d79b00;container=0;" parent="plOoAYpIa059WLNFDd3Z-107" vertex="1">
          <mxGeometry x="461.75675675675666" y="0.4300000000000068" width="18.10810810810811" height="69.56521739130434" as="geometry" />
        </mxCell>
        <mxCell id="plOoAYpIa059WLNFDd3Z-34" value="" style="rounded=0;whiteSpace=wrap;html=1;fillColor=#ffe6cc;strokeColor=#d79b00;container=0;" parent="plOoAYpIa059WLNFDd3Z-107" vertex="1">
          <mxGeometry x="479.864864864865" y="0.4300000000000068" width="18.10810810810811" height="69.56521739130434" as="geometry" />
        </mxCell>
        <mxCell id="plOoAYpIa059WLNFDd3Z-35" value="" style="rounded=0;whiteSpace=wrap;html=1;fillColor=#60a917;strokeColor=#2D7600;fontColor=#ffffff;container=0;" parent="plOoAYpIa059WLNFDd3Z-107" vertex="1">
          <mxGeometry x="497.97297297297314" y="0.4300000000000068" width="18.10810810810811" height="69.56521739130434" as="geometry" />
        </mxCell>
        <mxCell id="plOoAYpIa059WLNFDd3Z-36" value="" style="rounded=0;whiteSpace=wrap;html=1;fillColor=#60a917;strokeColor=#2D7600;fontColor=#ffffff;container=0;" parent="plOoAYpIa059WLNFDd3Z-107" vertex="1">
          <mxGeometry x="516.081081081081" y="0.4300000000000068" width="18.10810810810811" height="69.56521739130434" as="geometry" />
        </mxCell>
        <mxCell id="plOoAYpIa059WLNFDd3Z-37" value="" style="rounded=0;whiteSpace=wrap;html=1;fillColor=#60a917;strokeColor=#2D7600;fontColor=#ffffff;container=0;" parent="plOoAYpIa059WLNFDd3Z-107" vertex="1">
          <mxGeometry x="534.1891891891894" y="0.4300000000000068" width="18.10810810810811" height="69.56521739130434" as="geometry" />
        </mxCell>
        <mxCell id="plOoAYpIa059WLNFDd3Z-39" value="" style="rounded=0;whiteSpace=wrap;html=1;fillColor=#60a917;strokeColor=#2D7600;fontColor=#ffffff;container=0;" parent="plOoAYpIa059WLNFDd3Z-107" vertex="1">
          <mxGeometry x="552.2972972972974" y="0.4300000000000068" width="18.10810810810811" height="69.56521739130434" as="geometry" />
        </mxCell>
        <mxCell id="plOoAYpIa059WLNFDd3Z-40" value="" style="rounded=0;whiteSpace=wrap;html=1;fillColor=#60a917;strokeColor=#2D7600;fontColor=#ffffff;container=0;" parent="plOoAYpIa059WLNFDd3Z-107" vertex="1">
          <mxGeometry x="570.4054054054056" y="0.4300000000000068" width="18.10810810810811" height="69.56521739130434" as="geometry" />
        </mxCell>
        <mxCell id="plOoAYpIa059WLNFDd3Z-41" value="" style="rounded=0;whiteSpace=wrap;html=1;fillColor=#60a917;strokeColor=#2D7600;fontColor=#ffffff;container=0;" parent="plOoAYpIa059WLNFDd3Z-107" vertex="1">
          <mxGeometry x="588.5135135135137" y="0.4300000000000068" width="18.10810810810811" height="69.56521739130434" as="geometry" />
        </mxCell>
        <mxCell id="plOoAYpIa059WLNFDd3Z-42" value="" style="rounded=0;whiteSpace=wrap;html=1;fillColor=#60a917;strokeColor=#2D7600;fontColor=#ffffff;container=0;" parent="plOoAYpIa059WLNFDd3Z-107" vertex="1">
          <mxGeometry x="606.6216216216217" y="0.4300000000000068" width="18.10810810810811" height="69.56521739130434" as="geometry" />
        </mxCell>
        <mxCell id="plOoAYpIa059WLNFDd3Z-55" value="" style="group;" parent="plOoAYpIa059WLNFDd3Z-107" vertex="1" connectable="0">
          <mxGeometry x="358.36" y="90.43" width="43.83" height="50" as="geometry" />
        </mxCell>
        <mxCell id="plOoAYpIa059WLNFDd3Z-46" value="" style="html=1;dashed=0;whiteSpace=wrap;shape=mxgraph.dfd.externalEntity;container=0;" parent="plOoAYpIa059WLNFDd3Z-55" vertex="1">
          <mxGeometry width="43.83000000000001" height="49.99999999999999" as="geometry" />
        </mxCell>
        <mxCell id="plOoAYpIa059WLNFDd3Z-47" value=".so" style="html=1;dashed=0;whiteSpace=wrap;shadow=1;container=0;movable=1;resizable=1;rotatable=1;deletable=1;editable=1;locked=0;connectable=1;" parent="plOoAYpIa059WLNFDd3Z-55" vertex="1">
          <mxGeometry x="7.305000000000008" y="7.142857142857156" width="29.220000000000002" height="21.428571428571423" as="geometry" />
        </mxCell>
        <mxCell id="plOoAYpIa059WLNFDd3Z-56" value="" style="group;" parent="plOoAYpIa059WLNFDd3Z-107" vertex="1" connectable="0">
          <mxGeometry x="300" y="90.43" width="43.83" height="50" as="geometry" />
        </mxCell>
        <mxCell id="plOoAYpIa059WLNFDd3Z-57" value="" style="html=1;dashed=0;whiteSpace=wrap;shape=mxgraph.dfd.externalEntity;container=0;" parent="plOoAYpIa059WLNFDd3Z-56" vertex="1">
          <mxGeometry width="43.83000000000001" height="49.99999999999999" as="geometry" />
        </mxCell>
        <mxCell id="plOoAYpIa059WLNFDd3Z-58" value=".so" style="html=1;dashed=0;whiteSpace=wrap;shadow=1;container=0;movable=1;resizable=1;rotatable=1;deletable=1;editable=1;locked=0;connectable=1;" parent="plOoAYpIa059WLNFDd3Z-56" vertex="1">
          <mxGeometry x="7.305000000000008" y="7.142857142857156" width="29.220000000000002" height="21.428571428571423" as="geometry" />
        </mxCell>
        <mxCell id="plOoAYpIa059WLNFDd3Z-59" value="" style="group;" parent="plOoAYpIa059WLNFDd3Z-107" vertex="1" connectable="0">
          <mxGeometry x="450" y="90.43" width="43.83" height="50" as="geometry" />
        </mxCell>
        <mxCell id="plOoAYpIa059WLNFDd3Z-60" value="" style="html=1;dashed=0;whiteSpace=wrap;shape=mxgraph.dfd.externalEntity;container=0;" parent="plOoAYpIa059WLNFDd3Z-59" vertex="1">
          <mxGeometry width="43.83000000000001" height="49.99999999999999" as="geometry" />
        </mxCell>
        <mxCell id="plOoAYpIa059WLNFDd3Z-61" value=".so" style="html=1;dashed=0;whiteSpace=wrap;shadow=1;container=0;movable=1;resizable=1;rotatable=1;deletable=1;editable=1;locked=0;connectable=1;" parent="plOoAYpIa059WLNFDd3Z-59" vertex="1">
          <mxGeometry x="7.305000000000008" y="7.142857142857156" width="29.220000000000002" height="21.428571428571423" as="geometry" />
        </mxCell>
        <mxCell id="plOoAYpIa059WLNFDd3Z-62" value="" style="group;" parent="plOoAYpIa059WLNFDd3Z-107" vertex="1" connectable="0">
          <mxGeometry x="180" y="90.43" width="43.83" height="50" as="geometry" />
        </mxCell>
        <mxCell id="plOoAYpIa059WLNFDd3Z-63" value="" style="html=1;dashed=0;whiteSpace=wrap;shape=mxgraph.dfd.externalEntity;container=0;" parent="plOoAYpIa059WLNFDd3Z-62" vertex="1">
          <mxGeometry width="43.83000000000001" height="49.99999999999999" as="geometry" />
        </mxCell>
        <mxCell id="plOoAYpIa059WLNFDd3Z-64" value=".so" style="html=1;dashed=0;whiteSpace=wrap;shadow=1;container=0;movable=1;resizable=1;rotatable=1;deletable=1;editable=1;locked=0;connectable=1;" parent="plOoAYpIa059WLNFDd3Z-62" vertex="1">
          <mxGeometry x="7.305000000000008" y="7.142857142857156" width="29.220000000000002" height="21.428571428571423" as="geometry" />
        </mxCell>
        <mxCell id="plOoAYpIa059WLNFDd3Z-75" style="edgeStyle=orthogonalEdgeStyle;rounded=0;orthogonalLoop=1;jettySize=auto;html=1;exitX=0;exitY=0;exitDx=16.915000000000006;exitDy=0;exitPerimeter=0;entryX=0.5;entryY=1;entryDx=0;entryDy=0;" parent="plOoAYpIa059WLNFDd3Z-107" source="plOoAYpIa059WLNFDd3Z-63" target="plOoAYpIa059WLNFDd3Z-14" edge="1">
          <mxGeometry relative="1" as="geometry" />
        </mxCell>
        <mxCell id="plOoAYpIa059WLNFDd3Z-76" style="edgeStyle=orthogonalEdgeStyle;rounded=0;orthogonalLoop=1;jettySize=auto;html=1;exitX=0;exitY=0;exitDx=16.915000000000006;exitDy=0;exitPerimeter=0;entryX=0;entryY=1;entryDx=0;entryDy=0;" parent="plOoAYpIa059WLNFDd3Z-107" source="plOoAYpIa059WLNFDd3Z-57" target="plOoAYpIa059WLNFDd3Z-22" edge="1">
          <mxGeometry relative="1" as="geometry" />
        </mxCell>
        <mxCell id="plOoAYpIa059WLNFDd3Z-77" style="edgeStyle=orthogonalEdgeStyle;rounded=0;orthogonalLoop=1;jettySize=auto;html=1;exitX=0;exitY=0;exitDx=16.915000000000006;exitDy=0;exitPerimeter=0;entryX=0;entryY=1;entryDx=0;entryDy=0;" parent="plOoAYpIa059WLNFDd3Z-107" source="plOoAYpIa059WLNFDd3Z-46" target="plOoAYpIa059WLNFDd3Z-26" edge="1">
          <mxGeometry relative="1" as="geometry" />
        </mxCell>
        <mxCell id="plOoAYpIa059WLNFDd3Z-78" style="edgeStyle=orthogonalEdgeStyle;rounded=0;orthogonalLoop=1;jettySize=auto;html=1;exitX=0;exitY=0;exitDx=16.915000000000006;exitDy=0;exitPerimeter=0;entryX=0.5;entryY=1;entryDx=0;entryDy=0;" parent="plOoAYpIa059WLNFDd3Z-107" source="plOoAYpIa059WLNFDd3Z-60" target="plOoAYpIa059WLNFDd3Z-32" edge="1">
          <mxGeometry relative="1" as="geometry" />
        </mxCell>
        <mxCell id="plOoAYpIa059WLNFDd3Z-79" value="" style="html=1;rounded=0;fillColor=#a20025;strokeColor=#6F0000;strokeWidth=3;endArrow=none;startFill=0;entryX=0;entryY=0;entryDx=0;entryDy=0;exitX=1;exitY=0;exitDx=0;exitDy=0;" parent="plOoAYpIa059WLNFDd3Z-107" source="plOoAYpIa059WLNFDd3Z-10" target="plOoAYpIa059WLNFDd3Z-17" edge="1">
          <mxGeometry width="100" relative="1" as="geometry">
            <mxPoint x="160" y="0.4300000000000068" as="sourcePoint" />
            <mxPoint x="240" y="-0.5699999999999932" as="targetPoint" />
          </mxGeometry>
        </mxCell>
        <mxCell id="plOoAYpIa059WLNFDd3Z-80" value="" style="html=1;rounded=0;fillColor=#a20025;strokeColor=#6F0000;strokeWidth=3;endArrow=none;startFill=0;exitX=1;exitY=0;exitDx=0;exitDy=0;" parent="plOoAYpIa059WLNFDd3Z-107" edge="1">
          <mxGeometry width="100" relative="1" as="geometry">
            <mxPoint x="154.92" y="69.28" as="sourcePoint" />
            <mxPoint x="245" y="69.43" as="targetPoint" />
          </mxGeometry>
        </mxCell>
        <mxCell id="plOoAYpIa059WLNFDd3Z-81" value="" style="html=1;rounded=0;fillColor=#a20025;strokeColor=#6F0000;strokeWidth=3;endArrow=none;startFill=0;entryX=1;entryY=0;entryDx=0;entryDy=0;exitX=0;exitY=0;exitDx=0;exitDy=0;" parent="plOoAYpIa059WLNFDd3Z-107" source="plOoAYpIa059WLNFDd3Z-21" target="plOoAYpIa059WLNFDd3Z-27" edge="1">
          <mxGeometry width="100" relative="1" as="geometry">
            <mxPoint x="298.78" y="0.4300000000000068" as="sourcePoint" />
            <mxPoint x="388.78" y="0.4300000000000068" as="targetPoint" />
          </mxGeometry>
        </mxCell>
        <mxCell id="plOoAYpIa059WLNFDd3Z-83" value="" style="html=1;rounded=0;fillColor=#a20025;strokeColor=#6F0000;strokeWidth=3;endArrow=none;startFill=0;entryX=1;entryY=0;entryDx=0;entryDy=0;exitX=0;exitY=0;exitDx=0;exitDy=0;" parent="plOoAYpIa059WLNFDd3Z-107" edge="1">
          <mxGeometry width="100" relative="1" as="geometry">
            <mxPoint x="300" y="69.28" as="sourcePoint" />
            <mxPoint x="408" y="69.28" as="targetPoint" />
          </mxGeometry>
        </mxCell>
        <mxCell id="plOoAYpIa059WLNFDd3Z-84" value="" style="html=1;rounded=0;fillColor=#a20025;strokeColor=#6F0000;strokeWidth=3;endArrow=none;startFill=0;exitX=0;exitY=0;exitDx=0;exitDy=0;" parent="plOoAYpIa059WLNFDd3Z-107" edge="1">
          <mxGeometry width="100" relative="1" as="geometry">
            <mxPoint x="443.65" y="0.4300000000000068" as="sourcePoint" />
            <mxPoint x="500" y="0.4300000000000068" as="targetPoint" />
          </mxGeometry>
        </mxCell>
        <mxCell id="plOoAYpIa059WLNFDd3Z-85" value="" style="html=1;rounded=0;fillColor=#a20025;strokeColor=#6F0000;strokeWidth=3;endArrow=none;startFill=0;exitX=0;exitY=0;exitDx=0;exitDy=0;" parent="plOoAYpIa059WLNFDd3Z-107" edge="1">
          <mxGeometry width="100" relative="1" as="geometry">
            <mxPoint x="443.74" y="69.28" as="sourcePoint" />
            <mxPoint x="500.09000000000003" y="69.28" as="targetPoint" />
          </mxGeometry>
        </mxCell>
        <mxCell id="plOoAYpIa059WLNFDd3Z-86" value="" style="html=1;rounded=0;fillColor=#a20025;strokeColor=#6F0000;strokeWidth=3;endArrow=none;startFill=0;entryX=0;entryY=0;entryDx=0;entryDy=0;" parent="plOoAYpIa059WLNFDd3Z-107" target="plOoAYpIa059WLNFDd3Z-35" edge="1">
          <mxGeometry width="100" relative="1" as="geometry">
            <mxPoint x="498" y="70.43" as="sourcePoint" />
            <mxPoint x="520" y="20.430000000000007" as="targetPoint" />
          </mxGeometry>
        </mxCell>
        <mxCell id="plOoAYpIa059WLNFDd3Z-87" value="" style="html=1;rounded=0;fillColor=#a20025;strokeColor=#6F0000;strokeWidth=3;endArrow=none;startFill=0;entryX=0;entryY=0;entryDx=0;entryDy=0;" parent="plOoAYpIa059WLNFDd3Z-107" edge="1">
          <mxGeometry width="100" relative="1" as="geometry">
            <mxPoint x="443.65" y="70" as="sourcePoint" />
            <mxPoint x="443.65" as="targetPoint" />
          </mxGeometry>
        </mxCell>
        <mxCell id="plOoAYpIa059WLNFDd3Z-88" value="" style="html=1;rounded=0;fillColor=#a20025;strokeColor=#6F0000;strokeWidth=3;endArrow=none;startFill=0;entryX=0;entryY=0;entryDx=0;entryDy=0;" parent="plOoAYpIa059WLNFDd3Z-107" edge="1">
          <mxGeometry width="100" relative="1" as="geometry">
            <mxPoint x="406.72" y="70" as="sourcePoint" />
            <mxPoint x="406.72" as="targetPoint" />
          </mxGeometry>
        </mxCell>
        <mxCell id="plOoAYpIa059WLNFDd3Z-89" value="" style="html=1;rounded=0;fillColor=#a20025;strokeColor=#6F0000;strokeWidth=3;endArrow=none;startFill=0;entryX=0;entryY=0;entryDx=0;entryDy=0;" parent="plOoAYpIa059WLNFDd3Z-107" edge="1">
          <mxGeometry width="100" relative="1" as="geometry">
            <mxPoint x="300" y="70" as="sourcePoint" />
            <mxPoint x="300" as="targetPoint" />
          </mxGeometry>
        </mxCell>
        <mxCell id="plOoAYpIa059WLNFDd3Z-90" value="" style="html=1;rounded=0;fillColor=#a20025;strokeColor=#6F0000;strokeWidth=3;endArrow=none;startFill=0;entryX=0;entryY=0;entryDx=0;entryDy=0;" parent="plOoAYpIa059WLNFDd3Z-107" edge="1">
          <mxGeometry width="100" relative="1" as="geometry">
            <mxPoint x="335" y="70.43" as="sourcePoint" />
            <mxPoint x="335" y="0.4300000000000068" as="targetPoint" />
          </mxGeometry>
        </mxCell>
        <mxCell id="plOoAYpIa059WLNFDd3Z-91" value="" style="html=1;rounded=0;fillColor=#a20025;strokeColor=#6F0000;strokeWidth=3;endArrow=none;startFill=0;entryX=0;entryY=0;entryDx=0;entryDy=0;" parent="plOoAYpIa059WLNFDd3Z-107" edge="1">
          <mxGeometry width="100" relative="1" as="geometry">
            <mxPoint x="243.75" y="70" as="sourcePoint" />
            <mxPoint x="243.75" as="targetPoint" />
          </mxGeometry>
        </mxCell>
        <mxCell id="plOoAYpIa059WLNFDd3Z-92" value="" style="html=1;rounded=0;fillColor=#a20025;strokeColor=#6F0000;strokeWidth=3;endArrow=none;startFill=0;entryX=0;entryY=0;entryDx=0;entryDy=0;" parent="plOoAYpIa059WLNFDd3Z-107" edge="1">
          <mxGeometry width="100" relative="1" as="geometry">
            <mxPoint x="153.92000000000002" y="70" as="sourcePoint" />
            <mxPoint x="153.92000000000002" as="targetPoint" />
          </mxGeometry>
        </mxCell>
        <mxCell id="plOoAYpIa059WLNFDd3Z-108" value="&lt;h1 style=&quot;margin-top: 0px;&quot;&gt;Compartmentalisation and File Backed Regions&lt;/h1&gt;" style="text;html=1;whiteSpace=wrap;overflow=hidden;rounded=0;" parent="1" vertex="1">
          <mxGeometry x="132" y="110" width="258" height="120" as="geometry" />
        </mxCell>
        <mxCell id="plOoAYpIa059WLNFDd3Z-105" value="Key" style="swimlane;whiteSpace=wrap;html=1;" parent="1" vertex="1">
          <mxGeometry x="230" y="390" width="390" height="170" as="geometry" />
        </mxCell>
        <mxCell id="plOoAYpIa059WLNFDd3Z-101" value="" style="group;" parent="plOoAYpIa059WLNFDd3Z-105" vertex="1" connectable="0">
          <mxGeometry x="320" y="30" width="43.83" height="50" as="geometry" />
        </mxCell>
        <mxCell id="plOoAYpIa059WLNFDd3Z-102" value="" style="html=1;dashed=0;whiteSpace=wrap;shape=mxgraph.dfd.externalEntity;container=0;" parent="plOoAYpIa059WLNFDd3Z-101" vertex="1">
          <mxGeometry width="43.83000000000001" height="49.99999999999999" as="geometry" />
        </mxCell>
        <mxCell id="plOoAYpIa059WLNFDd3Z-103" value=".so" style="html=1;dashed=0;whiteSpace=wrap;shadow=1;container=0;movable=1;resizable=1;rotatable=1;deletable=1;editable=1;locked=0;connectable=1;" parent="plOoAYpIa059WLNFDd3Z-101" vertex="1">
          <mxGeometry x="7.305000000000008" y="7.142857142857156" width="29.220000000000002" height="21.428571428571423" as="geometry" />
        </mxCell>
        <mxCell id="plOoAYpIa059WLNFDd3Z-94" value="Process VMA" style="rounded=0;whiteSpace=wrap;html=1;fillColor=light-dark(#61a916, #1f2f1e);strokeColor=light-dark(#2f7402, #446e2c);" parent="plOoAYpIa059WLNFDd3Z-105" vertex="1">
          <mxGeometry x="178.51" y="37.139999999999986" width="120" height="20" as="geometry" />
        </mxCell>
        <mxCell id="plOoAYpIa059WLNFDd3Z-99" value="Compartment&lt;div&gt;Boundary&lt;/div&gt;" style="text;html=1;align=center;verticalAlign=middle;resizable=0;points=[];autosize=1;strokeColor=light-dark(#6f0000, #ededed);fillColor=none;fontSize=11;strokeWidth=3;" parent="plOoAYpIa059WLNFDd3Z-105" vertex="1">
          <mxGeometry x="60" y="35" width="90" height="40" as="geometry" />
        </mxCell>
        <mxCell id="plOoAYpIa059WLNFDd3Z-104" value="File the loader maps into&lt;div&gt;file backed region&lt;/div&gt;" style="text;html=1;align=center;verticalAlign=middle;whiteSpace=wrap;rounded=0;" parent="plOoAYpIa059WLNFDd3Z-105" vertex="1">
          <mxGeometry x="320" y="110" width="60" height="30" as="geometry" />
        </mxCell>
      </root>
    </mxGraphModel>
  </diagram>
</mxfile>
